<svg id="Layer_1" data-name="Layer 1" xmlns="http://www.w3.org/2000/svg" width="496.16mm" height="372.54mm" viewBox="0 0 1406.45 1056.03">
  <defs>
    <style>
      .cls-1 {
        font-size: 150px;
        font-family: Lato-Regular, Lato;
      }

      .cls-2 {
        letter-spacing: -0.03em;
      }

      .cls-3 {
        letter-spacing: -0.01em;
      }
    </style>
  </defs>
  <path d="M157.9,149.6c-4.2,4.6-19.9,14.3-35.1,21.7L108,178.5v40.3l6.3-2.4c3.4-1.3,11.8-4.4,18.7-6.8s13.3-4.8,14.3-5.1c1.6-.7,1.7,5.2,1.7,113.9V433h55V147H160.3Z" transform="translate(-108 -129.01)"/>
  <g>
    <path d="M282.5,693.3c-11.8,4-20.7,11.7-25.8,22.4-3.9,8.5-4.9,20.7-2.3,29.5,5.3,18.4,23.2,30.8,42.4,29.6,11.8-.8,18.3-3.7,26.8-12.2,9.6-9.6,11.8-15.1,11.9-29.6,0-10-.2-10.9-3.4-17.5a42.46,42.46,0,0,0-19.9-19.8c-5.8-2.7-7.9-3.2-16.2-3.4C290.1,692.1,285,692.5,282.5,693.3Z" transform="translate(-108 -129.01)"/>
    <path d="M1204.3,693.9c-19,7-30.7,26.5-27.4,45.7,2.5,14.3,11,25.6,23.8,31.7,6.3,3,7.6,3.2,17.3,3.2s11-.2,17.2-3.2a42.13,42.13,0,0,0,24.1-31.6c2.9-17.3-6.9-36-23.2-43.9-5.8-2.9-7.5-3.3-16.5-3.5C1211.7,692.1,1208.4,692.5,1204.3,693.9Z" transform="translate(-108 -129.01)"/>
    <path d="M639.5,717.3c-11.7,3.9-19.8,11-24.8,21.5-2.9,6.1-3.2,7.6-3.2,16.2.1,13.1,2.5,19.2,11.4,28.1,8.7,8.7,15,11.3,27.6,11.3s18.9-2.6,27.6-11.3c8.8-8.9,11.3-14.9,11.4-28.1,0-8.6-.3-10.1-3.2-16.2a39,39,0,0,0-19.1-19.1c-5.5-2.6-8.1-3.2-15.2-3.4C646.8,716.1,641.9,716.5,639.5,717.3Z" transform="translate(-108 -129.01)"/>
    <path d="M876.3,717.4c-18.7,6.1-31.1,26.1-27.5,44.3,2.7,13.5,10.6,23.8,22.7,29.4,20.9,9.8,45.9-.8,53.6-22.7,1.6-4.7,2-7.7,1.7-15-.3-7.8-.8-10-3.6-15.7A42,42,0,0,0,904,719.2C897.3,716.1,883.1,715.2,876.3,717.4Z" transform="translate(-108 -129.01)"/>
    <path d="M237.2,793c-15.6,4.1-28.3,14-35.4,27.6-6.8,12.9-6.8,12.7-6.8,82.6,0,42,.4,63.6,1.1,65.5a19,19,0,0,0,3,4.9c1.9,2,1.8,2.8-17.1,102.9-16.5,87.3-18.9,101.3-17.9,103.7,1.4,3.5,3.7,4.8,8.2,4.8,7.3,0,5.9,5.2,26.9-106.1,18.9-100.2,19.2-101.3,22-103.7a20.88,20.88,0,0,0,4.1-4.6c.9-1.5,1.3-16.2,1.7-56.7.5-51,.6-54.8,2.3-56.7,2.6-2.8,6.4-3.3,9-1.2l2.2,1.8.5,154.9.5,154.8,2.2,4c9.2,17.1,32.4,17.1,41.6,0,2.2-4,2.2-4.1,2.7-95.5.3-50.3.6-91.6.8-91.8a25.41,25.41,0,0,1,2.9-1.3c2.3-.9,5.3-.3,8.5,1.5.2,0,.5,41.3.8,91.6.5,91.4.5,91.5,2.7,95.5,4.4,8.2,11.9,12.8,20.8,12.8s16.4-4.6,20.8-12.8l2.2-4,.3-154.7.2-154.7,2.5-1.9c2.9-2.3,6.6-1.9,9.2,1,1.7,1.9,1.8,5.7,2.3,57.2.6,62.1.1,58.5,8.4,62.6,7.5,3.6,15.1,2,19.9-4.1,1.5-1.9,2.7-2.9,2.7-2.2s6.7,13.3,14.9,28.2c21.3,38.4,20.1,35.6,20.1,45.1,0,6.9-1.1,12.1-7.9,37.3-4.4,16-8.3,30.4-8.6,31.9l-.7,2.8H428v27.8c0,26.8.1,27.9,2.3,32.2,2.5,5,8.8,9,14.2,9,5-.1,11-3.4,13.6-7.6,2.4-3.8,2.4-4.3,2.7-32.7l.3-28.7h8.8l.3,28.2c.3,26.4.4,28.6,2.4,32.3,2.4,4.6,8.9,8.5,14.3,8.5s11.2-3.8,13.9-9c2.1-4.3,2.2-5.4,2.2-32.2V1116h8.5c5.5,0,8.5-.4,8.5-1.1s-3.8-15.1-8.5-32.3c-7.2-26.2-8.5-32.3-8.5-38.6,0-9,.2-9.4,16.8-39.2,6.6-11.9,13.5-24.5,15.3-28s3.3-6.5,3.5-6.7,1.3.8,2.5,2.2c1.3,1.7,4.1,3.3,7.6,4.3,5.1,1.5,5.8,1.5,9.9-.1,4.6-1.7,8.4-5.8,10.4-11,.6-1.6,7.2-23.4,14.6-48.4s14-46.3,14.5-47.4c.8-1.3,1.9-1.7,4.2-1.5,6.7.6,7.1-1.6-17.8,88.5-12.5,45.6-23,83.8-23.3,85l-.4,2.3h42.1l.3,62.7.3,62.8,2.5,4.5a20.9,20.9,0,0,0,24,10c6-1.6,12.3-8.1,13.8-14.3.9-3.2,1.2-22.7,1.2-65.1V1044h10.9l.3,62.7c.3,62.6.3,62.8,2.5,66.9,6.9,12.9,23,15.3,32.9,4.9a19.37,19.37,0,0,0,5.2-8.8c.9-3.2,1.2-22.7,1.2-65.1V1044h42.2l-.4-2.3c-.3-1.2-10.7-39.5-23.3-85-24.8-90.1-24.4-87.9-17.8-88.5,2.3-.2,3.4.2,4.2,1.6.6,1.1,7.4,23.3,15.1,49.3,9.1,30.4,15,48.8,16.6,51.2a16.52,16.52,0,0,0,7.1,5.9c3.9,1.7,5,1.8,9.4.8,9-2.2,12.9-7.4,12.9-17.2-.1-7.8-33.2-115.3-38.1-123.3-4.7-7.9-12.9-15.9-19.7-19.2l-5.7-2.8h-100l-5.5,2.7c-6.6,3.3-15.3,11.6-19.9,19.3-2.5,4.1-7.8,20.1-20.7,62-9.6,31.1-17.4,57.2-17.4,57.9,0,1.1-.9.9-3.7-.6a12.73,12.73,0,0,0-12.8.6c-1.2.8-6.4,8.3-11.5,16.6-10,16.4-13.7,21.3-18.1,23.6-4.1,2.1-46.7,2.1-50.9-.1s-8.6-8-17.9-23.5c-4.5-7.4-9.3-14.5-10.6-15.7-3.8-3.4-8.7-3.9-13.4-1.4l-4,2-.3-61.2-.3-61.2-2.6-6.6c-5.7-14.8-14.8-25.3-27.2-31.4-12.6-6.2-15.5-6.5-70.2-6.4C248.5,791.1,243.9,791.3,237.2,793Z" transform="translate(-108 -129.01)"/>
    <path d="M1162.3,792.5c-14.7,3.2-30.2,14.9-37,28-6.4,12.3-6.4,11.6-6.1,83.7.3,63.5.4,65.4,2.3,68,3.1,4.3,9.8,7.1,15.2,6.5,4.9-.5,8.5-2.7,11.7-7.1,2-2.7,2.1-4.2,2.6-57.9.3-30.4.8-55.7,1.2-56.4,1.3-1.8,6.1-3.1,8.6-2.2a6.66,6.66,0,0,1,3.2,3.4c.6,1.7,1,57.5,1,155.5v152.8l2.8,5.3c3.1,6,10.2,11.2,16.8,12.2,8.9,1.5,19.7-3.9,23.8-11.8,2.1-3.9,2.1-5.2,2.6-95.3l.5-91.4,2.4-1.9c2.9-2.4,5.3-2.4,8.2,0l2.4,1.9.5,91.4.5,91.5,3,4.8a23.08,23.08,0,0,0,19.5,10.8c10.1,0,19.2-6.3,21.9-15.2.8-2.8,1.1-44.8,1.1-155.5,0-162.2-.1-158.4,4.7-158.7,4-.3,5.9.3,7.6,2.3s1.7,6,1.7,55.2c0,49.6.2,53.4,1.9,57.2,5.2,11.5,21.5,12.5,28.2,1.7l2.4-3.8v-130l-2.8-7.8c-3.6-10.2-7.9-16.9-15.5-23.9a55.3,55.3,0,0,0-26-13.3C1263.7,790.5,1171.6,790.5,1162.3,792.5Z" transform="translate(-108 -129.01)"/>
    <path d="M837.3,815.4c-10.3,3.3-20.1,12-26,23.2-3.6,6.9-37.3,115.9-37.3,120.7,0,12.3,9.9,20.7,21,17.7,4.1-1.1,9.4-6.3,11.1-10.9.6-1.4,7.1-23.1,14.6-48.1s14.1-46.5,14.9-47.8c1.6-2.4,5.3-2.9,7.2-1,.7.7,1.2,2.6,1.2,4.3s-10.3,40.6-23,86.5-23,83.6-23,83.7,9.6.4,21.3.5l21.2.3.5,63.7.5,63.6,3,4.3c9.2,13,29,11,35.6-3.6,1.7-3.7,1.9-8.2,1.9-66.3v-62.3l5.8.3,5.7.3.5,63.7.5,63.6,3,4.3c9.2,13,29,11,35.6-3.6,1.7-3.7,1.9-8.2,1.9-66.2V1044l21.3-.2,21.4-.3-14.3-52c-32.8-118.7-32.6-117.9-31.5-120.8.8-2.1,1.7-2.7,4-2.7a6.57,6.57,0,0,1,4,1.3c.6.8,7.4,22.6,15.1,48.6s14.7,48.5,15.5,50c2,3.9,7.8,8.8,11.3,9.6,6.4,1.4,14.7-2.7,17.9-8.8,3.5-6.8,2.6-10.8-15.7-70.2-18.7-60.7-19.7-63.2-29.7-73.3a47.32,47.32,0,0,0-11-8l-5.8-2.7-48-.2C851.8,814.1,840.6,814.4,837.3,815.4Z" transform="translate(-108 -129.01)"/>
    <path d="M457.7,912a34.85,34.85,0,0,0-21.8,17.9c-3,6.3-3.7,18.1-1.5,24.7,5.5,16.5,24.5,26.2,40.8,20.9,15.3-5.1,23.4-17,22.6-33.3-.6-12.6-7.3-22.7-18.5-27.9C473.5,911.6,463.5,910.6,457.7,912Z" transform="translate(-108 -129.01)"/>
    <path d="M1052.7,912a35.08,35.08,0,0,0-21.9,17.8c-3.1,6.3-3.7,18-1.3,25.2,5.4,16.1,24.5,25.8,40.7,20.5,15.3-5.1,23.4-17,22.6-33.3-.6-12.6-7.3-22.7-18.5-27.9C1068.5,911.6,1058.5,910.6,1052.7,912Z" transform="translate(-108 -129.01)"/>
    <path d="M1027.5,991.4c-10.7,3-16.8,13.2-33.9,56.5-12.5,31.6-13.9,35.7-13.1,39.7.8,4.6,5.6,8.4,10.5,8.4,7.3,0,8.1-1.4,18.3-33.9,5-16.2,9.7-29.6,10.4-29.8,1-.4,1.3,15.4,1.5,69.9.3,64.7.4,70.6,2,73.5a16.85,16.85,0,0,0,22.7,7.1c8.7-4.5,8.5-3.6,9.1-40.3.3-19.6.9-32.8,1.5-33.4,2.2-2,7-1.7,8.1.6.5,1,1.1,16.1,1.4,33.5.5,29.9.6,31.8,2.6,34.5,2.5,3.5,9.8,7.3,13.9,7.3s11.4-3.8,13.9-7.3c2.1-2.8,2.1-4.2,2.6-74.3.3-46.7.8-71.4,1.5-71.3s5.1,11.4,10.1,25.2c11.2,31.3,11.8,32.4,15.5,33.2,3.9.9,9.4-1.1,11.9-4.2,4.4-5.6,4.2-6.4-11.3-45.3-8-20-15.9-38.2-17.5-40.5a21.92,21.92,0,0,0-8.8-7.1l-5.9-2.9-31-.2C1039.6,990.1,1031.4,990.4,1027.5,991.4Z" transform="translate(-108 -129.01)"/>
  </g>
  <text class="cls-1" transform="translate(152.62 128.74)">FIN<tspan x="0" y="180">DE L</tspan><tspan class="cls-2" x="316.12" y="180">A</tspan><tspan x="412.65" y="180" xml:space="preserve"> P</tspan><tspan class="cls-3" x="541.12" y="180">R</tspan><tspan x="634.05" y="180">OBREZ</tspan><tspan class="cls-2" x="1121.99" y="180">A</tspan></text>
</svg>
